<svg xmlns="http://www.w3.org/2000/svg" viewBox="0 0 100 100">
  <!-- Ocean background -->
  <circle cx="50" cy="50" r="46" fill="#1a6ea8"/>
  <!-- Landmasses -->
  <ellipse cx="38" cy="35" rx="14" ry="10" fill="#2d8a4e" transform="rotate(-20 38 35)"/>
  <path d="M52 28 Q62 24 68 32 Q72 40 65 46 Q58 50 52 44 Q46 38 52 28Z" fill="#2d8a4e"/>
  <path d="M28 52 Q36 48 42 54 Q46 62 40 68 Q32 72 26 64 Q22 56 28 52Z" fill="#2d8a4e"/>
  <path d="M55 55 Q65 52 70 60 Q74 68 66 72 Q58 76 54 68 Q50 60 55 55Z" fill="#2d8a4e"/>
  <ellipse cx="50" cy="82" rx="8" ry="5" fill="#2d8a4e" transform="rotate(10 50 82)"/>
  <!-- Globe shine -->
  <ellipse cx="36" cy="30" rx="10" ry="6" fill="rgba(255,255,255,0.12)" transform="rotate(-30 36 30)"/>
  <!-- Outline -->
  <circle cx="50" cy="50" r="46" fill="none" stroke="#0d4f7a" stroke-width="2"/>
</svg>
